<?xml version="1.0" encoding="UTF-8"?>
<svg id="Layer_1" data-name="Layer 1" xmlns="http://www.w3.org/2000/svg" viewBox="0 0 800 599.99">
  <defs>
    <style>
      .cls-1 {
        fill: #292c30;
      }
    </style>
  </defs>
  <path class="cls-1" d="m766.67,0H207.95c-11.23,0-21.7,5.67-27.9,15.07L5.45,281.73c-7.27,11.1-7.27,25.43,0,36.53l174.6,266.66c6.2,9.4,16.67,15.07,27.9,15.07h558.72c18.43,0,33.33-14.9,33.33-33.33V33.33c0-18.43-14.9-33.33-33.33-33.33Zm-143.1,456.89c-6.5,6.5-15.03,9.77-23.57,9.77s-17.07-3.27-23.57-9.77l-109.77-109.77-109.77,109.77c-6.5,6.5-15.03,9.77-23.57,9.77s-17.07-3.27-23.57-9.77c-13.03-13.03-13.03-34.1,0-47.13l109.77-109.77-109.77-109.77c-13.03-13.03-13.03-34.1,0-47.13s34.1-13.03,47.13,0l109.77,109.77,109.77-109.77c13.03-13.03,34.1-13.03,47.13,0s13.03,34.1,0,47.13l-109.77,109.77,109.77,109.77c13.03,13.03,13.03,34.1,0,47.13h.02Z"/>
</svg>